<svg xmlns="http://www.w3.org/2000/svg" width="144.72" height="144.72" viewBox="0 0 144.72 144.72">
  <g id="Group_56965" data-name="Group 56965" transform="translate(-0.153 -0.229)">
    <path id="Path_1" data-name="Path 1" d="M144.92,26.786V118.61a4.17,4.17,0,0,0-.076,1.374,23.16,23.16,0,0,1-.458,3.206,25.585,25.585,0,0,1-2.443,7.022A28.156,28.156,0,0,1,135,138.837a26.36,26.36,0,0,1-8.167,4.656,28.2,28.2,0,0,1-7.022,1.527H26.763a9.184,9.184,0,0,0-1.45,0c-.687-.076-1.3-.153-1.985-.229a26.753,26.753,0,0,1-4.274-.992,29.018,29.018,0,0,1-8.7-4.656,27.538,27.538,0,0,1-6.87-8.244A26.693,26.693,0,0,1,.2,119.068a6.528,6.528,0,0,0,0-1.221V26.481a27.4,27.4,0,0,1,2.9-11.22,27.471,27.471,0,0,1,9.083-10.3,29.427,29.427,0,0,1,7.328-3.511A28.785,28.785,0,0,1,26.228.3h92.206a4.169,4.169,0,0,0,1.374.076.968.968,0,0,1,.458.076.459.459,0,0,0,.305.076c.305,0,.534.076.84.076,0,.076.076.076.153,0h.153a.688.688,0,0,0,.382.076.28.28,0,0,1,.229.076.688.688,0,0,0,.382.076c.076,0,.153,0,.153.076a.28.28,0,0,0,.229.076c.229.076.458.076.687.153.076.076.153.076.305.076a.28.28,0,0,1,.229.076c.153.076.229.153.382.153.153.076.382.076.534.153a.561.561,0,0,0,.458.153c.076,0,.153.076.229.076,0,.076.076.076.153.076,1.069.382,2.137.763,3.129,1.221a26.493,26.493,0,0,1,8.244,5.954,27.273,27.273,0,0,1,5.725,9.159,24.725,24.725,0,0,1,1.6,7.4C144.844,25.718,144.767,26.252,144.92,26.786ZM35.846,108.458v23.967c0,.534,0,.611.534.611a22.171,22.171,0,0,0,5.5-.305,20.741,20.741,0,0,0,14.5-11.068,20.651,20.651,0,0,0,2.214-9.312v-22.9c0-.229-.076-.305-.305-.305H55.615a.783.783,0,0,1-.534-1.3l.229-.229c.992-1.069,1.908-2.137,2.9-3.206a.98.98,0,0,0,.305-.763V65.485c0-.382,0-.382-.305-.382a18.421,18.421,0,0,0-4.58.153,19.487,19.487,0,0,0-5.114,1.374,21.031,21.031,0,0,0-10.533,9.694,19.7,19.7,0,0,0-2.29,9.236C35.846,93.193,35.846,100.825,35.846,108.458Zm73.429-19.006V65.638c0-.534.153-.611-.611-.611a21.846,21.846,0,0,0-5.877.458,19.729,19.729,0,0,0-7.022,2.977A20.537,20.537,0,0,0,86.6,83.651a.633.633,0,0,0,.229.611c.534.534.992,1.069,1.527,1.6.534.611,1.145,1.221,1.679,1.832a.838.838,0,0,1-.611,1.45H87.444c-.84,0-.84,0-.84.84v42.668c0,.382,0,.382.382.382a22.3,22.3,0,0,0,5.038-.229,21.179,21.179,0,0,0,4.427-1.3,20.4,20.4,0,0,0,8.32-6.259,21.365,21.365,0,0,0,3.435-6.183,21.1,21.1,0,0,0,1.145-6.488C109.351,104.871,109.274,97.162,109.274,89.452Zm-48.087,21.6v21.6c0,.229.076.305.305.382a21.8,21.8,0,0,0,10.152-1.756,20.842,20.842,0,0,0,10.533-10.533,18.154,18.154,0,0,0,1.756-7.786c.076-7.786,0-15.571,0-23.433,0-.458,0-.458-.458-.458H81.414a.822.822,0,0,1-.611-.153.79.79,0,0,1-.076-1.221L83.7,84.262a1.015,1.015,0,0,0,.229-.611V65.485c0-.458,0-.458-.458-.534a24.787,24.787,0,0,0-4.122.076,20.212,20.212,0,0,0-4.809,1.221A20.7,20.7,0,0,0,64.7,74.034a20.318,20.318,0,0,0-3.435,9.236,1.1,1.1,0,0,0,.382,1.145c.153.153.229.305.382.382.84.916,1.679,1.832,2.443,2.748a1.372,1.372,0,0,1,.305.687.77.77,0,0,1-.84.687H61.721c-.611,0-.534,0-.611.534v.687C61.187,97.314,61.187,104.184,61.187,111.054Zm28.242-74.8H82.406a4.44,4.44,0,0,0-3.969,4.274V54.417a.2.2,0,0,0,.229.229H92.635a2.113,2.113,0,0,0,.687-.076,4.445,4.445,0,0,0,3.587-4.427V36.327c0-.153-.076-.305-.229-.229H96.3C94.009,36.251,91.719,36.251,89.429,36.251Zm-24.349,0H58.744a6.358,6.358,0,0,0-1.679.229,4.553,4.553,0,0,0-2.977,4.274V54.646a.164.164,0,0,0,.153.153H68.362a3.983,3.983,0,0,0,3.206-1.679,4.668,4.668,0,0,0,.992-2.977V36.556a.2.2,0,0,0-.229-.229h-.382C69.66,36.251,67.37,36.251,65.08,36.251ZM84.62,19.382h0V12.36c0-.458,0-.458-.458-.458H70.575a4.922,4.922,0,0,0-1.527.229,4.381,4.381,0,0,0-2.977,4.274V30.221a.2.2,0,0,0,.229.229H80.269a3.1,3.1,0,0,0,1.45-.305,4.5,4.5,0,0,0,2.824-4.2C84.62,23.809,84.62,21.6,84.62,19.382Z" transform="translate(-0.047 -0.071)" fill="#e6b820"/>
    <path id="Path_14" data-name="Path 14" d="M46.9,128.541v-22.9a19.475,19.475,0,0,1,2.29-9.236A20.695,20.695,0,0,1,64.837,85.339a22.994,22.994,0,0,1,4.58-.153c.305,0,.305,0,.305.382v18.166a.98.98,0,0,1-.305.763c-.992,1.069-1.985,2.137-2.9,3.206l-.229.229a.806.806,0,0,0,.534,1.3h2.672c.229,0,.305.076.305.305v22.9a19.7,19.7,0,0,1-2.214,9.312,20.741,20.741,0,0,1-14.5,11.068,19.029,19.029,0,0,1-5.5.305c-.534-.076-.534-.076-.534-.611C46.9,144.494,46.9,136.555,46.9,128.541Z" transform="translate(-11.102 -20.153)" fill="#fff"/>
    <path id="Path_15" data-name="Path 15" d="M136.046,109.517v23.128a20.643,20.643,0,0,1-4.58,12.671,20.4,20.4,0,0,1-8.32,6.259,22.619,22.619,0,0,1-4.427,1.3,22.307,22.307,0,0,1-5.038.229c-.382,0-.382,0-.382-.382V110.052c0-.84,0-.84.84-.84h1.985a.744.744,0,0,0,.687-.305.837.837,0,0,0-.076-1.145c-.534-.611-1.145-1.221-1.679-1.832-.534-.534-.992-1.069-1.527-1.6a.867.867,0,0,1-.229-.611,20.4,20.4,0,0,1,3.282-9.312,20.859,20.859,0,0,1,12.9-8.854,21.608,21.608,0,0,1,5.877-.458c.763,0,.611.076.611.611C136.122,93.641,136.046,101.579,136.046,109.517Z" transform="translate(-26.819 -20.136)" fill="#fff"/>
    <path id="Path_16" data-name="Path 16" d="M80.1,131.158V109.786c0-.611-.076-.534.611-.534h2.214a.777.777,0,0,0,.84-.687.744.744,0,0,0-.305-.687c-.84-.916-1.679-1.832-2.443-2.748-.153-.153-.229-.305-.382-.382a1.26,1.26,0,0,1-.382-1.145,20,20,0,0,1,3.435-9.236,21.077,21.077,0,0,1,14.655-9.007,24.788,24.788,0,0,1,4.122-.076c.458,0,.458.076.458.534v18.166a.867.867,0,0,1-.229.611l-2.977,3.435a.8.8,0,0,0,.076,1.221.822.822,0,0,0,.611.153h2.061c.458,0,.458,0,.458.458V133.3a19.933,19.933,0,0,1-1.756,7.786,20.842,20.842,0,0,1-10.533,10.533,18.841,18.841,0,0,1-5.725,1.6,28.624,28.624,0,0,1-4.427.153c-.229,0-.305-.076-.305-.382v-.916C80.1,144.974,80.1,138.1,80.1,131.158Z" transform="translate(-18.96 -20.176)" fill="#fff"/>
    <path id="Path_17" data-name="Path 17" d="M113.691,47.4h7.251a.2.2,0,0,1,.229.229V61.445a4.506,4.506,0,0,1-3.587,4.427,2.113,2.113,0,0,1-.687.076H102.929a.2.2,0,0,1-.229-.229V51.827a4.44,4.44,0,0,1,3.969-4.274c1.145-.076,2.214,0,3.358,0A29.416,29.416,0,0,1,113.691,47.4Z" transform="translate(-24.31 -11.22)" fill="#fff"/>
    <path id="Path_18" data-name="Path 18" d="M81.815,47.376h7.328a.2.2,0,0,1,.229.229V61.192a4.153,4.153,0,0,1-.992,2.977,4.456,4.456,0,0,1-3.206,1.679H71.053A.164.164,0,0,1,70.9,65.7V51.8a4.63,4.63,0,0,1,2.977-4.274,6.358,6.358,0,0,1,1.679-.229c2.061.076,4.122.076,6.259.076Z" transform="translate(-16.782 -11.196)" fill="#fff"/>
    <path id="Path_19" data-name="Path 19" d="M105.072,22.98v6.564a4.58,4.58,0,0,1-2.824,4.2,4.928,4.928,0,0,1-1.45.305H86.829a.2.2,0,0,1-.229-.229V20a4.45,4.45,0,0,1,2.977-4.274A4.921,4.921,0,0,1,91.1,15.5H104.69c.458,0,.458,0,.458.458-.076,2.366-.076,4.732-.076,7.022Z" transform="translate(-20.499 -3.669)" fill="#fff"/>
  </g>
</svg>
